<mxfile host="app.diagrams.net" modified="2023-10-11T18:12:25.749Z" agent="Mozilla/5.0 (Windows NT 10.0; Win64; x64; rv:109.0) Gecko/20100101 Firefox/118.0" etag="Tqnx8zufI_wn5gL89iEl" version="22.0.4" type="github">
  <diagram id="R2lEEEUBdFMjLlhIrx00" name="Page-1">
    <mxGraphModel dx="1434" dy="820" grid="1" gridSize="10" guides="1" tooltips="1" connect="1" arrows="1" fold="1" page="1" pageScale="1" pageWidth="850" pageHeight="1100" math="0" shadow="0" extFonts="Permanent Marker^https://fonts.googleapis.com/css?family=Permanent+Marker">
      <root>
        <mxCell id="0" />
        <mxCell id="1" parent="0" />
        <mxCell id="IX8ZnTn2tXp243q-xPvh-1" value="Localidad" style="rounded=0;whiteSpace=wrap;html=1;" vertex="1" parent="1">
          <mxGeometry x="220" y="300" width="80" height="40" as="geometry" />
        </mxCell>
        <mxCell id="IX8ZnTn2tXp243q-xPvh-2" value="Provincia" style="rounded=0;whiteSpace=wrap;html=1;" vertex="1" parent="1">
          <mxGeometry x="220" y="500" width="80" height="40" as="geometry" />
        </mxCell>
        <mxCell id="IX8ZnTn2tXp243q-xPvh-4" value="Comunidad Autonoma" style="rounded=0;whiteSpace=wrap;html=1;" vertex="1" parent="1">
          <mxGeometry x="480" y="500" width="80" height="40" as="geometry" />
        </mxCell>
        <mxCell id="IX8ZnTn2tXp243q-xPvh-5" value="Capital Provincia" style="rounded=0;whiteSpace=wrap;html=1;" vertex="1" parent="1">
          <mxGeometry x="220" y="630" width="80" height="40" as="geometry" />
        </mxCell>
        <mxCell id="IX8ZnTn2tXp243q-xPvh-6" value="&lt;div&gt;Capital&amp;nbsp;&lt;/div&gt;&lt;div&gt;Comunidad&lt;/div&gt;" style="rounded=0;whiteSpace=wrap;html=1;" vertex="1" parent="1">
          <mxGeometry x="480" y="630" width="80" height="40" as="geometry" />
        </mxCell>
        <mxCell id="IX8ZnTn2tXp243q-xPvh-7" value="pertenecer" style="rhombus;whiteSpace=wrap;html=1;" vertex="1" parent="1">
          <mxGeometry x="220" y="380" width="80" height="80" as="geometry" />
        </mxCell>
        <mxCell id="IX8ZnTn2tXp243q-xPvh-8" value="pertenecer" style="rhombus;whiteSpace=wrap;html=1;" vertex="1" parent="1">
          <mxGeometry x="345" y="480" width="80" height="80" as="geometry" />
        </mxCell>
        <mxCell id="IX8ZnTn2tXp243q-xPvh-9" value="Nombre" style="ellipse;whiteSpace=wrap;html=1;fontStyle=4" vertex="1" parent="1">
          <mxGeometry x="190" y="230" width="60" height="30" as="geometry" />
        </mxCell>
        <mxCell id="IX8ZnTn2tXp243q-xPvh-11" style="edgeStyle=orthogonalEdgeStyle;rounded=0;orthogonalLoop=1;jettySize=auto;html=1;exitX=1;exitY=1;exitDx=0;exitDy=0;entryX=0.75;entryY=0;entryDx=0;entryDy=0;" edge="1" parent="1" source="IX8ZnTn2tXp243q-xPvh-10" target="IX8ZnTn2tXp243q-xPvh-1">
          <mxGeometry relative="1" as="geometry">
            <Array as="points">
              <mxPoint x="300" y="256" />
              <mxPoint x="300" y="280" />
              <mxPoint x="280" y="280" />
            </Array>
          </mxGeometry>
        </mxCell>
        <mxCell id="IX8ZnTn2tXp243q-xPvh-10" value="Poblacion" style="ellipse;whiteSpace=wrap;html=1;" vertex="1" parent="1">
          <mxGeometry x="270" y="230" width="80" height="30" as="geometry" />
        </mxCell>
        <mxCell id="IX8ZnTn2tXp243q-xPvh-12" style="edgeStyle=orthogonalEdgeStyle;rounded=0;orthogonalLoop=1;jettySize=auto;html=1;entryX=0.338;entryY=-0.025;entryDx=0;entryDy=0;entryPerimeter=0;" edge="1" parent="1" source="IX8ZnTn2tXp243q-xPvh-9" target="IX8ZnTn2tXp243q-xPvh-1">
          <mxGeometry relative="1" as="geometry" />
        </mxCell>
        <mxCell id="IX8ZnTn2tXp243q-xPvh-18" style="edgeStyle=orthogonalEdgeStyle;rounded=0;orthogonalLoop=1;jettySize=auto;html=1;exitX=1;exitY=0.5;exitDx=0;exitDy=0;" edge="1" parent="1" source="IX8ZnTn2tXp243q-xPvh-13" target="IX8ZnTn2tXp243q-xPvh-2">
          <mxGeometry relative="1" as="geometry" />
        </mxCell>
        <mxCell id="IX8ZnTn2tXp243q-xPvh-13" value="Nombre" style="ellipse;whiteSpace=wrap;html=1;" vertex="1" parent="1">
          <mxGeometry x="110" y="490" width="80" height="30" as="geometry" />
        </mxCell>
        <mxCell id="IX8ZnTn2tXp243q-xPvh-19" style="edgeStyle=orthogonalEdgeStyle;rounded=0;orthogonalLoop=1;jettySize=auto;html=1;exitX=1;exitY=0.5;exitDx=0;exitDy=0;entryX=0;entryY=0.75;entryDx=0;entryDy=0;" edge="1" parent="1" source="IX8ZnTn2tXp243q-xPvh-14" target="IX8ZnTn2tXp243q-xPvh-2">
          <mxGeometry relative="1" as="geometry" />
        </mxCell>
        <mxCell id="IX8ZnTn2tXp243q-xPvh-14" value="Poblacion" style="ellipse;whiteSpace=wrap;html=1;" vertex="1" parent="1">
          <mxGeometry x="110" y="520" width="80" height="30" as="geometry" />
        </mxCell>
        <mxCell id="IX8ZnTn2tXp243q-xPvh-20" style="edgeStyle=orthogonalEdgeStyle;rounded=0;orthogonalLoop=1;jettySize=auto;html=1;exitX=1;exitY=0.5;exitDx=0;exitDy=0;entryX=0;entryY=0.5;entryDx=0;entryDy=0;" edge="1" parent="1" source="IX8ZnTn2tXp243q-xPvh-15" target="IX8ZnTn2tXp243q-xPvh-2">
          <mxGeometry relative="1" as="geometry">
            <Array as="points">
              <mxPoint x="210" y="565" />
              <mxPoint x="210" y="520" />
            </Array>
          </mxGeometry>
        </mxCell>
        <mxCell id="IX8ZnTn2tXp243q-xPvh-15" value="Superficie" style="ellipse;whiteSpace=wrap;html=1;" vertex="1" parent="1">
          <mxGeometry x="110" y="550" width="80" height="30" as="geometry" />
        </mxCell>
        <mxCell id="IX8ZnTn2tXp243q-xPvh-17" style="edgeStyle=orthogonalEdgeStyle;rounded=0;orthogonalLoop=1;jettySize=auto;html=1;exitX=1;exitY=0.5;exitDx=0;exitDy=0;" edge="1" parent="1" source="IX8ZnTn2tXp243q-xPvh-16" target="IX8ZnTn2tXp243q-xPvh-2">
          <mxGeometry relative="1" as="geometry">
            <Array as="points">
              <mxPoint x="210" y="475" />
              <mxPoint x="210" y="520" />
            </Array>
          </mxGeometry>
        </mxCell>
        <mxCell id="IX8ZnTn2tXp243q-xPvh-16" value="CP" style="ellipse;whiteSpace=wrap;html=1;fontStyle=4" vertex="1" parent="1">
          <mxGeometry x="110" y="460" width="80" height="30" as="geometry" />
        </mxCell>
        <mxCell id="IX8ZnTn2tXp243q-xPvh-28" style="edgeStyle=orthogonalEdgeStyle;rounded=0;orthogonalLoop=1;jettySize=auto;html=1;exitX=0;exitY=0.5;exitDx=0;exitDy=0;entryX=1;entryY=0.25;entryDx=0;entryDy=0;" edge="1" parent="1" source="IX8ZnTn2tXp243q-xPvh-21" target="IX8ZnTn2tXp243q-xPvh-4">
          <mxGeometry relative="1" as="geometry" />
        </mxCell>
        <mxCell id="IX8ZnTn2tXp243q-xPvh-21" value="Superficie" style="ellipse;whiteSpace=wrap;html=1;" vertex="1" parent="1">
          <mxGeometry x="610" y="460" width="80" height="30" as="geometry" />
        </mxCell>
        <mxCell id="IX8ZnTn2tXp243q-xPvh-29" style="edgeStyle=orthogonalEdgeStyle;rounded=0;orthogonalLoop=1;jettySize=auto;html=1;exitX=0;exitY=0.5;exitDx=0;exitDy=0;entryX=1;entryY=0.5;entryDx=0;entryDy=0;" edge="1" parent="1" source="IX8ZnTn2tXp243q-xPvh-24" target="IX8ZnTn2tXp243q-xPvh-4">
          <mxGeometry relative="1" as="geometry" />
        </mxCell>
        <mxCell id="IX8ZnTn2tXp243q-xPvh-24" value="Nombre" style="ellipse;whiteSpace=wrap;html=1;fontStyle=4" vertex="1" parent="1">
          <mxGeometry x="610" y="490" width="80" height="30" as="geometry" />
        </mxCell>
        <mxCell id="IX8ZnTn2tXp243q-xPvh-30" style="edgeStyle=orthogonalEdgeStyle;rounded=0;orthogonalLoop=1;jettySize=auto;html=1;exitX=0;exitY=0.5;exitDx=0;exitDy=0;" edge="1" parent="1" source="IX8ZnTn2tXp243q-xPvh-25" target="IX8ZnTn2tXp243q-xPvh-4">
          <mxGeometry relative="1" as="geometry" />
        </mxCell>
        <mxCell id="IX8ZnTn2tXp243q-xPvh-25" value="Poblacion" style="ellipse;whiteSpace=wrap;html=1;" vertex="1" parent="1">
          <mxGeometry x="610" y="520" width="80" height="30" as="geometry" />
        </mxCell>
        <mxCell id="IX8ZnTn2tXp243q-xPvh-34" style="edgeStyle=orthogonalEdgeStyle;rounded=0;orthogonalLoop=1;jettySize=auto;html=1;exitX=0;exitY=0;exitDx=0;exitDy=0;entryX=0.75;entryY=1;entryDx=0;entryDy=0;" edge="1" parent="1" source="IX8ZnTn2tXp243q-xPvh-31" target="IX8ZnTn2tXp243q-xPvh-5">
          <mxGeometry relative="1" as="geometry" />
        </mxCell>
        <mxCell id="IX8ZnTn2tXp243q-xPvh-31" value="Nombre" style="ellipse;whiteSpace=wrap;html=1;" vertex="1" parent="1">
          <mxGeometry x="270" y="690" width="80" height="30" as="geometry" />
        </mxCell>
        <mxCell id="IX8ZnTn2tXp243q-xPvh-32" value="CP" style="ellipse;whiteSpace=wrap;html=1;fontStyle=4" vertex="1" parent="1">
          <mxGeometry x="180" y="690" width="80" height="30" as="geometry" />
        </mxCell>
        <mxCell id="IX8ZnTn2tXp243q-xPvh-33" style="edgeStyle=orthogonalEdgeStyle;rounded=0;orthogonalLoop=1;jettySize=auto;html=1;exitX=1;exitY=0;exitDx=0;exitDy=0;entryX=0.413;entryY=1;entryDx=0;entryDy=0;entryPerimeter=0;" edge="1" parent="1" source="IX8ZnTn2tXp243q-xPvh-32" target="IX8ZnTn2tXp243q-xPvh-5">
          <mxGeometry relative="1" as="geometry" />
        </mxCell>
        <mxCell id="IX8ZnTn2tXp243q-xPvh-37" style="edgeStyle=orthogonalEdgeStyle;rounded=0;orthogonalLoop=1;jettySize=auto;html=1;exitX=1;exitY=0;exitDx=0;exitDy=0;entryX=0.5;entryY=1;entryDx=0;entryDy=0;" edge="1" parent="1" source="IX8ZnTn2tXp243q-xPvh-35" target="IX8ZnTn2tXp243q-xPvh-6">
          <mxGeometry relative="1" as="geometry" />
        </mxCell>
        <mxCell id="IX8ZnTn2tXp243q-xPvh-35" value="Nombre" style="ellipse;whiteSpace=wrap;html=1;fontStyle=4" vertex="1" parent="1">
          <mxGeometry x="450" y="690" width="80" height="30" as="geometry" />
        </mxCell>
        <mxCell id="IX8ZnTn2tXp243q-xPvh-38" style="edgeStyle=orthogonalEdgeStyle;rounded=0;orthogonalLoop=1;jettySize=auto;html=1;exitX=0;exitY=0;exitDx=0;exitDy=0;entryX=0.75;entryY=1;entryDx=0;entryDy=0;" edge="1" parent="1" source="IX8ZnTn2tXp243q-xPvh-36" target="IX8ZnTn2tXp243q-xPvh-6">
          <mxGeometry relative="1" as="geometry" />
        </mxCell>
        <mxCell id="IX8ZnTn2tXp243q-xPvh-36" value="Localidad" style="ellipse;whiteSpace=wrap;html=1;" vertex="1" parent="1">
          <mxGeometry x="540" y="690" width="80" height="30" as="geometry" />
        </mxCell>
      </root>
    </mxGraphModel>
  </diagram>
</mxfile>
